# 3ds Max Wavefront OBJ Exporter v0.97b - (c)2007 guruware
# File Created: 05.04.2013 18:03:32

mtllib boo.mtl

#
# object boo_mesh
#

v  8.5453 28.4518 14.6353
v  0.0000 28.2147 7.9737
v  0.0000 30.1302 13.2364
v  -8.5453 28.4518 14.6353
v  18.3937 6.6058 -0.4615
v  31.6733 21.1549 19.4605
v  17.6731 7.6370 18.7819
v  0.0000 10.7402 30.6432
v  13.5542 17.5049 31.4294
v  21.0019 29.0495 35.0877
v  34.6542 34.8746 24.4554
v  24.3709 40.5240 37.9495
v  30.7573 52.1236 30.6409
v  37.8643 44.0142 16.8346
v  37.4630 31.4482 7.5030
v  31.7523 19.2537 -0.4374
v  37.3374 41.2851 -5.2431
v  27.9053 23.1907 -18.6968
v  32.0578 40.6356 -19.3425
v  16.8752 29.3548 -34.7790
v  16.1793 10.7566 -19.3513
v  20.2257 62.6112 37.3382
v  18.8346 48.6441 42.2830
v  17.9062 40.7451 40.7279
v  15.8341 25.8540 34.4743
v  10.2153 18.4629 31.7445
v  0.0000 13.0119 30.4786
v  -10.2153 18.4629 31.7445
v  -13.5542 17.5049 31.4294
v  -15.8341 25.8540 34.4743
v  -21.0019 29.0495 35.0877
v  -17.9062 40.7451 40.7279
v  -24.3709 40.5240 37.9495
v  -18.8346 48.6441 42.2830
v  -30.7573 52.1236 30.6409
v  -20.2257 62.6112 37.3382
v  -31.7523 19.2537 -0.4374
v  -31.6733 21.1549 19.4605
v  -37.4630 31.4482 7.5030
v  -34.6542 34.8746 24.4554
v  -37.8643 44.0142 16.8346
v  -17.6731 7.6370 18.7819
v  -18.3937 6.6058 -0.4615
v  -27.9053 23.1907 -18.6968
v  -16.1793 10.7566 -19.3513
v  -16.8752 29.3548 -34.7790
v  -32.0578 40.6356 -19.3425
v  -37.3374 41.2851 -5.2431
v  -45.2221 42.6770 -1.5658
v  -45.7826 36.2237 6.7810
v  -45.7826 44.2741 12.9407
v  -45.7826 50.1217 4.8989
v  -37.6091 53.3544 5.2491
v  -32.8714 61.5709 20.9596
v  -53.3119 43.0188 0.6551
v  -53.6797 39.0109 6.0931
v  -53.4895 43.8397 10.0149
v  -53.6808 47.9474 4.9289
v  -56.9742 43.4120 5.2917
v  0.0000 64.3689 41.9821
v  0.0000 78.0088 28.6136
v  -20.5035 73.1933 25.4909
v  -32.5138 66.2843 5.3399
v  -30.6515 64.6175 -8.7765
v  -27.9429 57.4195 -21.7429
v  -19.3188 51.6401 -35.1766
v  -9.2926 41.4425 -46.6535
v  0.0000 31.2964 -46.6954
v  -4.9321 41.1930 -57.6455
v  0.0000 37.0676 -58.8587
v  0.0000 40.9326 -61.6672
v  4.9321 41.1930 -57.6455
v  -15.6423 68.0518 -24.1287
v  -18.1289 76.9705 -10.3054
v  -19.6995 79.3572 7.5458
v  0.0000 84.5831 9.6465
v  0.0000 81.4509 -11.4906
v  0.0000 73.3934 -25.3912
v  0.0000 60.8055 -36.2445
v  0.0000 48.7361 -48.3806
v  0.0000 44.7521 -57.2973
v  9.2926 41.4425 -46.6535
v  19.3188 51.6401 -35.1766
v  27.9429 57.4195 -21.7429
v  15.6423 68.0518 -24.1287
v  30.6515 64.6175 -8.7765
v  18.1289 76.9705 -10.3054
v  32.5138 66.2843 5.3399
v  19.6995 79.3572 7.5458
v  20.5035 73.1933 25.4909
v  37.6091 53.3544 5.2491
v  32.8714 61.5709 20.9596
v  45.7826 50.1217 4.8989
v  45.2221 42.6770 -1.5658
v  45.7826 36.2237 6.7810
v  45.7826 44.2741 12.9407
v  53.4895 43.8397 10.0149
v  53.6808 47.9474 4.9289
v  56.9742 43.4120 5.2917
v  53.3119 43.0188 0.6551
v  53.6797 39.0109 6.0931
v  17.5197 47.1776 0.7990
v  0.0000 50.3970 -3.6260
v  0.0000 18.1233 18.3415
v  -17.5197 47.1776 0.7990
v  0.0000 38.3184 45.3499
v  0.0000 47.7635 46.5669
v  4.8440 28.4457 21.7635
v  0.0000 23.3075 28.6820
v  9.6723 21.8956 25.3657
v  6.4923 16.2407 29.6030
v  0.0000 13.3458 29.7400
v  -6.4923 16.2407 29.6030
v  -9.6723 21.8956 25.3657
v  -4.8440 28.4457 21.7635
v  6.4425 36.4205 36.4870
v  8.0269 44.8129 35.2281
v  3.4577 36.4059 41.6525
v  3.6389 47.5869 42.1474
v  0.0000 36.4141 36.4750
v  3.0286 32.1176 37.7088
v  0.0000 44.8003 35.8872
v  -3.6389 47.5869 42.1474
v  -3.4577 36.4059 41.6525
v  -8.0269 44.8129 35.2281
v  -6.4425 36.4205 36.4870
v  -3.0286 32.1176 37.7088
v  -6.6739 45.4100 33.9880
v  -12.1471 48.1922 43.0910
v  -7.5570 35.5144 35.5822
v  -11.2604 35.5043 41.6213
v  -10.4222 29.7813 36.7089
v  -14.9382 35.5222 35.8902
v  -17.5540 45.4245 34.1423
v  6.6739 45.4100 33.9880
v  7.5570 35.5144 35.5822
v  12.1471 48.1922 43.0910
v  11.2604 35.5043 41.6213
v  17.5540 45.4245 34.1423
v  14.9382 35.5222 35.8902
v  10.4222 29.7813 36.7089
v  0.0000 20.4308 -35.3767
v  0.0000 7.2541 -19.4974
v  0.0000 2.7572 -0.1304
v  0.0000 4.7216 19.6000
# 145 vertices

vn 0.3556 0.9309 0.0837
vn 0.2339 0.9136 -0.3325
vn 0.0000 0.9958 -0.0918
vn -0.2339 0.9136 -0.3325
vn -0.3556 0.9309 0.0837
vn 0.4700 -0.8777 -0.0932
vn 0.7695 -0.5320 0.3532
vn 0.4432 -0.8322 0.3331
vn 0.0000 -0.5571 0.8305
vn 0.2812 -0.5131 0.8110
vn 0.4260 -0.4285 0.7968
vn 0.8585 -0.2076 0.4690
vn 0.6043 -0.1766 0.7769
vn 0.8028 0.1720 0.5710
vn 0.8607 0.0665 0.5047
vn 0.8663 -0.4984 0.0331
vn 0.8211 -0.5553 -0.1321
vn 0.8616 -0.0684 -0.5030
vn 0.7833 -0.4375 -0.4415
vn 0.8769 -0.0451 -0.4785
vn 0.6090 -0.3924 -0.6894
vn 0.4459 -0.7741 -0.4494
vn 0.4786 0.4689 0.7424
vn 0.4262 0.0629 0.9024
vn 0.0769 -0.5686 0.8190
vn -0.5269 -0.0608 0.8477
vn -0.3848 0.2304 0.8938
vn 0.0000 0.4726 0.8813
vn 0.3848 0.2304 0.8938
vn -0.2812 -0.5131 0.8110
vn 0.5269 -0.0608 0.8477
vn -0.4260 -0.4285 0.7968
vn -0.0769 -0.5686 0.8190
vn -0.6043 -0.1766 0.7769
vn -0.4262 0.0629 0.9024
vn -0.8028 0.1720 0.5710
vn -0.4786 0.4689 0.7424
vn -0.8211 -0.5553 -0.1321
vn -0.7695 -0.5320 0.3532
vn -0.8663 -0.4984 0.0331
vn -0.8585 -0.2076 0.4690
vn -0.8607 0.0665 0.5047
vn -0.4432 -0.8322 0.3331
vn -0.4700 -0.8777 -0.0932
vn -0.7833 -0.4375 -0.4415
vn -0.4459 -0.7741 -0.4494
vn -0.6090 -0.3924 -0.6894
vn -0.8769 -0.0451 -0.4785
vn -0.8616 -0.0684 -0.5030
vn -0.3608 -0.0565 -0.9309
vn -0.4342 -0.8938 0.1117
vn -0.4030 0.1623 0.9007
vn -0.3195 0.9403 -0.1174
vn -0.8460 0.5283 -0.0722
vn -0.8420 0.4402 0.3119
vn -0.4905 -0.0856 -0.8672
vn -0.5445 -0.8332 0.0967
vn -0.5387 0.0952 0.8371
vn -0.5149 0.8530 -0.0858
vn -0.9997 -0.0079 -0.0248
vn 0.0000 0.5023 0.8647
vn 0.0000 0.8527 0.5224
vn -0.4962 0.7556 0.4275
vn -0.8302 0.5573 -0.0140
vn -0.8143 0.4897 -0.3116
vn -0.7828 0.3702 -0.5002
vn -0.6364 0.3031 -0.7094
vn -0.7350 -0.0009 -0.6781
vn 0.0000 -0.7358 -0.6772
vn -0.8284 0.0684 -0.5559
vn 0.0000 -0.7921 -0.6104
vn 0.0000 0.0776 -0.9970
vn 0.8284 0.0684 -0.5559
vn -0.4446 0.6498 -0.6165
vn -0.4765 0.8116 -0.3380
vn -0.4926 0.8685 0.0546
vn 0.0000 0.9947 0.1027
vn 0.0000 0.9447 -0.3278
vn 0.0000 0.7646 -0.6445
vn 0.0000 0.6630 -0.7486
vn 0.0000 0.7666 -0.6421
vn 0.0000 0.8596 -0.5110
vn 0.7350 -0.0009 -0.6781
vn 0.6364 0.3031 -0.7094
vn 0.7828 0.3702 -0.5002
vn 0.4446 0.6498 -0.6165
vn 0.8143 0.4897 -0.3116
vn 0.4765 0.8116 -0.3380
vn 0.8302 0.5573 -0.0140
vn 0.4926 0.8685 0.0546
vn 0.4962 0.7556 0.4275
vn 0.8460 0.5283 -0.0722
vn 0.8420 0.4402 0.3119
vn 0.3195 0.9403 -0.1174
vn 0.3608 -0.0565 -0.9309
vn 0.4342 -0.8938 0.1117
vn 0.4030 0.1623 0.9007
vn 0.5387 0.0952 0.8371
vn 0.5149 0.8530 -0.0858
vn 0.9997 -0.0079 -0.0248
vn 0.4905 -0.0856 -0.8672
vn 0.5445 -0.8332 0.0967
vn -0.6970 -0.3772 0.6099
vn 0.0000 -0.5733 0.8194
vn 0.0000 0.8119 0.5838
vn 0.6970 -0.3772 0.6099
vn 0.0000 -0.7849 0.6196
vn 0.0000 0.0632 0.9980
vn 0.1780 0.8835 0.4334
vn 0.0000 0.5467 0.8373
vn 0.4311 0.5829 0.6888
vn 0.1672 0.2769 0.9462
vn 0.0000 0.1056 0.9944
vn -0.1672 0.2769 0.9462
vn -0.4311 0.5829 0.6888
vn -0.1780 0.8835 0.4334
vn 0.8413 -0.2376 0.4855
vn 0.8456 -0.0537 0.5311
vn 0.0228 -0.3415 0.9396
vn 0.0227 -0.0226 0.9995
vn 0.0000 -0.2752 0.9614
vn -0.0442 -0.6739 0.7375
vn 0.0000 0.0699 0.9976
vn -0.0227 -0.0226 0.9995
vn -0.0228 -0.3415 0.9396
vn -0.8456 -0.0537 0.5311
vn -0.8413 -0.2376 0.4855
vn 0.0442 -0.6739 0.7375
vn 0.8578 0.0062 0.5139
vn -0.0248 -0.1136 0.9932
vn 0.8475 -0.1240 0.5162
vn 0.0220 -0.3524 0.9356
vn 0.1259 -0.6355 0.7618
vn -0.8096 -0.2749 0.5187
vn -0.8334 -0.1225 0.5389
vn -0.8578 0.0062 0.5139
vn -0.8475 -0.1240 0.5162
vn 0.0248 -0.1136 0.9932
vn -0.0220 -0.3524 0.9356
vn 0.8334 -0.1225 0.5389
vn 0.8096 -0.2749 0.5187
vn -0.1259 -0.6355 0.7618
vn 0.0000 -0.7076 -0.7066
vn 0.0000 -0.8998 -0.4363
vn 0.0000 -0.9975 -0.0710
vn 0.0000 -0.9558 0.2942
# 146 vertex normals

vt 0.1621 0.1875 0.0000
vt 0.1289 0.1768 0.0000
vt 0.1162 0.2041 0.0000
vt 0.1123 0.1816 0.0000
vt 0.7949 0.2949 0.0000
vt 0.6133 0.3281 0.0000
vt 0.6133 0.1465 0.0000
vt 0.8896 0.1221 0.0000
vt 0.9121 0.3262 0.0000
vt 0.6133 0.3770 0.0000
vt 0.7549 0.0361 0.0000
vt 0.6133 0.0283 0.0000
vt 0.3164 0.3711 0.0000
vt 0.0381 0.3340 0.0000
vt 0.3467 0.4902 0.0000
vt 0.0332 0.4775 0.0000
vt 0.0498 0.7480 0.0000
vt 0.3564 0.7383 0.0000
vt 0.8398 0.5957 0.0000
vt 0.7520 0.6387 0.0000
vt 0.8057 0.5361 0.0000
vt 0.7510 0.4707 0.0000
vt 0.8691 0.4844 0.0000
vt 0.8066 0.4268 0.0000
vt 0.7520 0.4199 0.0000
# 25 texture coords

g boo_mesh
usemtl boo_mat
s 1
f 1/1/1 2/2/2 3/3/3 
s 2
f 2/2/4 4/1/5 3/3/3 
s 7
f 5/4/6 6/4/7 7/4/8 
s 13
f 8/4/9 7/4/8 9/4/10 
s 14
f 7/4/8 6/4/7 9/4/10 
s 15
f 9/4/10 6/4/7 10/4/11 
s 16
f 6/4/7 11/4/12 10/4/11 
s 17
f 10/4/11 11/4/12 12/4/13 
s 19
f 12/4/13 11/4/12 13/4/14 
s 21
f 13/4/14 11/4/12 14/4/15 
s 23
f 14/4/15 11/4/12 15/4/16 
s 24
f 11/4/12 6/4/7 15/4/16 
s 26
f 6/4/7 16/4/17 15/4/16 
s 27
f 15/4/16 16/4/17 17/4/18 
s 28
f 16/4/17 18/4/19 17/4/18 
s 29
f 17/4/18 18/4/19 19/4/20 
s 31
f 19/4/20 18/4/19 20/4/21 
s 33
f 20/4/21 18/4/19 21/4/22 
s 35
f 21/4/22 18/4/19 5/4/6 
s 36
f 18/4/19 16/4/17 5/4/6 
s 37
f 5/4/6 16/4/17 6/4/7 
s 42
f 22/4/23 23/4/24 13/4/14 
s 43
f 13/4/14 23/4/24 12/4/13 
s 44
f 23/4/24 24/4/25 12/4/13 
s 45
f 12/4/13 24/4/25 10/4/11 
s 46
f 24/4/25 25/4/26 10/4/11 
s 47
f 10/4/11 25/4/26 9/4/10 
s 48
f 25/4/26 26/4/27 9/4/10 
s 49
f 9/4/10 26/4/27 8/4/9 
s 50
f 26/4/27 27/4/28 8/4/9 
s 52
f 27/4/28 28/4/29 8/4/9 
s 53
f 8/4/9 28/4/29 29/4/30 
s 54
f 28/4/29 30/4/31 29/4/30 
s 55
f 29/4/30 30/4/31 31/4/32 
s 56
f 30/4/31 32/4/33 31/4/32 
s 57
f 31/4/32 32/4/33 33/4/34 
s 58
f 32/4/33 34/4/35 33/4/34 
s 59
f 33/4/34 34/4/35 35/4/36 
s 60
f 34/4/35 36/4/37 35/4/36 
s 65
f 37/4/38 38/4/39 39/4/40 
s 66
f 38/4/39 40/4/41 39/4/40 
s 67
f 39/4/40 40/4/41 41/4/42 
s 69
f 41/4/42 40/4/41 35/4/36 
s 71
f 35/4/36 40/4/41 33/4/34 
s 73
f 33/4/34 40/4/41 31/4/32 
s 74
f 40/4/41 38/4/39 31/4/32 
s 75
f 31/4/32 38/4/39 29/4/30 
s 81
f 8/4/9 29/4/30 42/4/43 
s 82
f 29/4/30 38/4/39 42/4/43 
s 83
f 42/4/43 38/4/39 43/4/44 
s 84
f 38/4/39 37/4/38 43/4/44 
s 86
f 37/4/38 44/4/45 43/4/44 
s 87
f 43/4/44 44/4/45 45/4/46 
s 89
f 45/4/46 44/4/45 46/4/47 
s 91
f 46/4/47 44/4/45 47/4/48 
s 93
f 47/4/48 44/4/45 48/4/49 
s 94
f 44/4/45 37/4/38 48/4/49 
s 96
f 37/4/38 39/4/40 48/4/49 
s 97
f 48/4/49 39/4/40 49/4/50 
s 99
f 49/4/50 39/4/40 50/4/51 
s 100
f 39/4/40 41/4/42 50/4/51 
s 101
f 50/4/51 41/4/42 51/4/52 
s 103
f 51/4/52 41/4/42 52/4/53 
s 105
f 52/4/53 41/4/42 53/4/54 
s 106
f 41/4/42 54/4/55 53/4/54 
s 111
f 53/4/54 48/4/49 52/4/53 
s 112
f 48/4/49 49/4/50 52/4/53 
s 113
f 52/4/53 49/4/50 55/4/56 
s 114
f 49/4/50 50/4/51 55/4/56 
s 115
f 55/4/56 50/4/51 56/4/57 
s 116
f 50/4/51 51/4/52 56/4/57 
s 117
f 56/4/57 51/4/52 57/4/58 
s 118
f 51/4/52 52/4/53 57/4/58 
s 119
f 57/4/58 52/4/53 58/4/59 
s 120
f 52/4/53 55/4/56 58/4/59 
s 121
f 58/4/59 55/4/56 59/4/60 
s 122
f 55/4/56 56/4/57 59/4/60 
s 124
f 56/4/57 57/4/58 59/4/60 
s 125
f 59/4/60 57/4/58 58/4/59 
s 131
f 60/4/61 61/4/62 36/4/37 
s 132
f 61/4/62 62/4/63 36/4/37 
s 133
f 36/4/37 62/4/63 54/4/55 
s 134
f 62/4/63 63/4/64 54/4/55 
s 135
f 54/4/55 63/4/64 53/4/54 
s 136
f 63/4/64 64/4/65 53/4/54 
s 137
f 53/4/54 64/4/65 48/4/49 
s 138
f 64/4/65 65/4/66 48/4/49 
s 139
f 48/4/49 65/4/66 47/4/48 
s 140
f 65/4/66 66/4/67 47/4/48 
s 141
f 47/4/48 66/4/67 46/4/47 
s 142
f 66/4/67 67/4/68 46/4/47 
s 143
f 46/4/47 67/4/68 68/4/69 
s 144
f 67/4/68 69/4/70 68/4/69 
s 145
f 68/4/69 69/4/70 70/4/71 
s 146
f 69/4/70 71/4/72 70/4/71 
s 148
f 71/4/72 72/4/73 70/4/71 
s 149
f 70/4/71 72/4/73 68/4/69 
s 155
f 66/4/67 65/4/66 73/4/74 
s 156
f 65/4/66 64/4/65 73/4/74 
s 157
f 73/4/74 64/4/65 74/4/75 
s 158
f 64/4/65 63/4/64 74/4/75 
s 159
f 74/4/75 63/4/64 75/4/76 
s 160
f 63/4/64 62/4/63 75/4/76 
s 162
f 62/4/63 61/4/62 75/4/76 
s 164
f 61/4/62 76/4/77 75/4/76 
s 165
f 75/4/76 76/4/77 74/4/75 
s 166
f 76/4/77 77/4/78 74/4/75 
s 168
f 77/4/78 78/4/79 74/4/75 
s 169
f 74/4/75 78/4/79 73/4/74 
s 170
f 78/4/79 79/4/80 73/4/74 
s 171
f 73/4/74 79/4/80 66/4/67 
s 172
f 79/4/80 80/4/81 66/4/67 
s 173
f 66/4/67 80/4/81 67/4/68 
s 175
f 67/4/68 80/4/81 69/4/70 
s 176
f 80/4/81 81/4/82 69/4/70 
s 177
f 69/4/70 81/4/82 71/4/72 
s 179
f 71/4/72 81/4/82 72/4/73 
s 180
f 81/4/82 80/4/81 72/4/73 
s 181
f 72/4/73 80/4/81 82/4/83 
s 183
f 82/4/83 80/4/81 83/4/84 
s 184
f 80/4/81 79/4/80 83/4/84 
s 189
f 84/4/85 85/4/86 86/4/87 
s 190
f 85/4/86 87/4/88 86/4/87 
s 191
f 86/4/87 87/4/88 88/4/89 
s 192
f 87/4/88 89/4/90 88/4/89 
s 193
f 88/4/89 89/4/90 90/4/91 
s 195
f 90/4/91 89/4/90 61/4/62 
s 197
f 61/4/62 89/4/90 76/4/77 
s 198
f 89/4/90 87/4/88 76/4/77 
s 199
f 76/4/77 87/4/88 77/4/78 
s 201
f 77/4/78 87/4/88 78/4/79 
s 202
f 87/4/88 85/4/86 78/4/79 
s 203
f 78/4/79 85/4/86 79/4/80 
s 205
f 79/4/80 85/4/86 83/4/84 
s 206
f 85/4/86 84/4/85 83/4/84 
s 211
f 72/4/73 82/4/83 68/4/69 
s 213
f 68/4/69 82/4/83 20/4/21 
s 214
f 82/4/83 83/4/84 20/4/21 
s 215
f 20/4/21 83/4/84 19/4/20 
s 216
f 83/4/84 84/4/85 19/4/20 
s 217
f 19/4/20 84/4/85 17/4/18 
s 218
f 84/4/85 86/4/87 17/4/18 
s 219
f 17/4/18 86/4/87 91/4/92 
s 220
f 86/4/87 88/4/89 91/4/92 
s 221
f 91/4/92 88/4/89 92/4/93 
s 222
f 88/4/89 90/4/91 92/4/93 
s 223
f 92/4/93 90/4/91 22/4/23 
s 224
f 90/4/91 61/4/62 22/4/23 
s 225
f 22/4/23 61/4/62 60/4/61 
s 231
f 22/4/23 13/4/14 92/4/93 
s 232
f 13/4/14 14/4/15 92/4/93 
s 233
f 92/4/93 14/4/15 91/4/92 
s 234
f 14/4/15 93/4/94 91/4/92 
s 235
f 91/4/92 93/4/94 17/4/18 
s 236
f 93/4/94 94/4/95 17/4/18 
s 237
f 17/4/18 94/4/95 15/4/16 
s 238
f 94/4/95 95/4/96 15/4/16 
s 239
f 15/4/16 95/4/96 14/4/15 
s 240
f 95/4/96 96/4/97 14/4/15 
s 241
f 14/4/15 96/4/97 93/4/94 
s 242
f 96/4/97 97/4/98 93/4/94 
s 243
f 93/4/94 97/4/98 98/4/99 
s 244
f 97/4/98 99/4/100 98/4/99 
s 246
f 99/4/100 100/4/101 98/4/99 
s 247
f 98/4/99 100/4/101 93/4/94 
s 249
f 93/4/94 100/4/101 94/4/95 
s 250
f 100/4/101 95/4/96 94/4/95 
s 255
f 100/4/101 101/4/102 95/4/96 
s 257
f 95/4/96 101/4/102 96/4/97 
s 259
f 96/4/97 101/4/102 97/4/98 
s 261
f 97/4/98 101/4/102 99/4/100 
s 262
f 101/4/102 100/4/101 99/4/100 
s 267
f 41/4/42 35/4/36 54/4/55 
s 268
f 35/4/36 36/4/37 54/4/55 
s 273
f 102/5/103 103/6/104 104/7/105 
s 274
f 103/6/104 105/5/106 104/7/105 
s 279
f 25/8/26 24/9/25 102/5/103 
s 280
f 24/9/25 106/10/107 102/5/103 
s 281
f 102/5/103 106/10/107 103/6/104 
s 283
f 103/6/104 106/10/107 105/5/106 
s 284
f 106/10/107 32/9/33 105/5/106 
s 286
f 32/9/33 30/8/31 105/5/106 
s 288
f 30/8/31 28/11/29 105/5/106 
s 289
f 105/5/106 28/11/29 104/7/105 
s 290
f 28/11/29 27/12/28 104/7/105 
s 292
f 27/12/28 26/11/27 104/7/105 
s 293
f 104/7/105 26/11/27 102/5/103 
s 294
f 26/11/27 25/8/26 102/5/103 
s 299
f 32/13/33 106/14/107 34/15/35 
s 300
f 106/14/107 107/16/108 34/15/35 
s 302
f 107/16/108 60/17/61 34/15/35 
s 303
f 34/15/35 60/17/61 36/18/37 
s 309
f 22/18/23 60/17/61 23/15/24 
s 310
f 60/17/61 107/16/108 23/15/24 
s 312
f 107/16/108 106/14/107 23/15/24 
s 313
f 23/15/24 106/14/107 24/13/25 
s 319
f 1/19/1 3/20/3 108/21/109 
s 320
f 3/20/3 109/22/110 108/21/109 
s 322
f 109/22/110 110/23/111 108/21/109 
s 323
f 108/21/109 110/23/111 1/19/1 
s 329
f 110/23/111 109/22/110 111/24/112 
s 331
f 111/24/112 109/22/110 112/25/113 
s 333
f 112/25/113 109/22/110 113/24/114 
s 335
f 113/24/114 109/22/110 114/23/115 
s 336
f 109/22/110 115/21/116 114/23/115 
s 337
f 114/23/115 115/21/116 4/19/5 
s 339
f 4/19/5 115/21/116 3/20/3 
s 340
f 115/21/116 109/22/110 3/20/3 
s 345
f 116/4/117 117/4/118 118/4/119 
s 346
f 117/4/118 119/4/120 118/4/119 
s 348
f 119/4/120 120/4/121 118/4/119 
s 350
f 120/4/121 121/4/122 118/4/119 
s 351
f 118/4/119 121/4/122 116/4/117 
s 357
f 119/4/120 122/4/123 120/4/121 
s 358
f 122/4/123 123/4/124 120/4/121 
s 359
f 120/4/121 123/4/124 124/4/125 
s 360
f 123/4/124 125/4/126 124/4/125 
s 362
f 125/4/126 126/4/127 124/4/125 
s 364
f 126/4/127 127/4/128 124/4/125 
s 365
f 124/4/125 127/4/128 120/4/121 
s 371
f 128/4/129 129/4/130 130/4/131 
s 372
f 129/4/130 131/4/132 130/4/131 
s 373
f 130/4/131 131/4/132 132/4/133 
s 375
f 132/4/133 131/4/132 133/4/134 
s 377
f 133/4/134 131/4/132 134/4/135 
s 378
f 131/4/132 129/4/130 134/4/135 
s 383
f 135/4/136 136/4/137 137/4/138 
s 384
f 136/4/137 138/4/139 137/4/138 
s 385
f 137/4/138 138/4/139 139/4/140 
s 387
f 139/4/140 138/4/139 140/4/141 
s 389
f 140/4/141 138/4/139 141/4/142 
s 390
f 138/4/139 136/4/137 141/4/142 
s 395
f 68/4/69 20/4/21 142/4/143 
s 396
f 20/4/21 21/4/22 142/4/143 
s 397
f 142/4/143 21/4/22 143/4/144 
s 398
f 21/4/22 5/4/6 143/4/144 
s 399
f 143/4/144 5/4/6 144/4/145 
s 400
f 5/4/6 7/4/8 144/4/145 
s 401
f 144/4/145 7/4/8 145/4/146 
s 402
f 7/4/8 8/4/9 145/4/146 
s 404
f 8/4/9 42/4/43 145/4/146 
s 405
f 145/4/146 42/4/43 144/4/145 
s 406
f 42/4/43 43/4/44 144/4/145 
s 407
f 144/4/145 43/4/44 143/4/144 
s 408
f 43/4/44 45/4/46 143/4/144 
s 409
f 143/4/144 45/4/46 142/4/143 
s 410
f 45/4/46 46/4/47 142/4/143 
s 411
f 142/4/143 46/4/47 68/4/69 
# 0 polygons - 248 triangles

